<?xml version="1.0" encoding="utf-8"?>
<!-- Generator: Adobe Illustrator 19.2.1, SVG Export Plug-In . SVG Version: 6.00 Build 0)  -->
<svg version="1.1" id="Capa_1" xmlns="http://www.w3.org/2000/svg" xmlns:xlink="http://www.w3.org/1999/xlink" x="0px" y="0px"
	 viewBox="0 0 24 24" style="enable-background:new 0 0 24 24;" xml:space="preserve">
<path id="_x38_0" d="M16.5,3c-1.7,0-3.4,0.8-4.5,2.1C10.9,3.8,9.2,3,7.5,3C4.4,3,2,5.4,2,8.5c0,3.8,3.4,6.9,8.5,11.5l1.5,1.3
	l1.5-1.3c5.1-4.7,8.5-7.8,8.5-11.5C22,5.4,19.6,3,16.5,3z M16.5,5c1.5,0,2.6,0.8,3.2,2h-6.6C13.7,5.8,15.1,5,16.5,5z M7.5,5
	c1.4,0,2.8,0.8,3.4,2H4.3C4.9,5.8,6,5,7.5,5z"/>
</svg>
