<?xml version="1.0" encoding="utf-8"?>
<!-- Generator: Adobe Illustrator 19.2.1, SVG Export Plug-In . SVG Version: 6.00 Build 0)  -->
<svg version="1.1" id="Capa_1" xmlns="http://www.w3.org/2000/svg" xmlns:xlink="http://www.w3.org/1999/xlink" x="0px" y="0px"
	 viewBox="0 0 24 24" style="enable-background:new 0 0 24 24;" xml:space="preserve">
<style type="text/css">
	.st0{display:none;}
</style>
<path id="_x30_" class="st0" d="M12.1,18.5L12,18.6l-0.1-0.1C7.1,14.2,4,11.4,4,8.5C4,6.5,5.5,5,7.5,5c1.5,0,3,1,3.6,2.4h1.9
	C13.5,6,15,5,16.5,5c2,0,3.5,1.5,3.5,3.5C20,11.4,16.9,14.2,12.1,18.5 M16.5,3c-1.7,0-3.4,0.8-4.5,2.1C10.9,3.8,9.2,3,7.5,3
	C4.4,3,2,5.4,2,8.5c0,3.8,3.4,6.9,8.6,11.5l1.4,1.3l1.4-1.3c5.2-4.7,8.6-7.8,8.6-11.5C22,5.4,19.6,3,16.5,3z"/>
<path id="_x32_0" class="st0" d="M16.5,3c-1.7,0-3.4,0.8-4.5,2.1C10.9,3.8,9.2,3,7.5,3C4.4,3,2,5.4,2,8.5c0,3.8,3.4,6.9,8.5,11.5
	l1.5,1.3l1.5-1.3c5.1-4.7,8.5-7.8,8.5-11.5C22,5.4,19.6,3,16.5,3z M14.9,16H9.1C6,13,4,10.8,4,8.5C4,6.5,5.5,5,7.5,5
	c1.5,0,3,1,3.6,2.4h1.9C13.5,6,15,5,16.5,5c2,0,3.5,1.5,3.5,3.5C20,10.8,18,13,14.9,16z"/>
<path id="_x34_0" class="st0" d="M16.5,3c-1.7,0-3.4,0.8-4.5,2.1C10.9,3.8,9.2,3,7.5,3C4.4,3,2,5.4,2,8.5c0,3.8,3.4,6.9,8.5,11.5
	l1.5,1.3l1.5-1.3c5.1-4.7,8.5-7.8,8.5-11.5C22,5.4,19.6,3,16.5,3z M17.8,13H6.2C4.8,11.4,4,9.9,4,8.5C4,6.5,5.5,5,7.5,5
	c1.5,0,3,1,3.6,2.4h1.9C13.5,6,15,5,16.5,5c2,0,3.5,1.5,3.5,3.5C20,9.9,19.2,11.4,17.8,13z"/>
<path id="_x36_0" class="st0" d="M16.5,3c-1.7,0-3.4,0.8-4.5,2.1C10.9,3.8,9.2,3,7.5,3C4.4,3,2,5.4,2,8.5c0,3.8,3.4,6.9,8.5,11.5
	l1.5,1.3l1.5-1.3c5.1-4.7,8.5-7.8,8.5-11.5C22,5.4,19.6,3,16.5,3z M7.5,5c1.5,0,3,1,3.6,2.4h1.9C13.5,6,15,5,16.5,5
	c2,0,3.5,1.5,3.5,3.5c0,0.5-0.1,1-0.3,1.5H4.3C4.1,9.5,4,9,4,8.5C4,6.5,5.5,5,7.5,5z"/>
<path id="_x38_0" d="M16.5,3c-1.7,0-3.4,0.8-4.5,2.1C10.9,3.8,9.2,3,7.5,3C4.4,3,2,5.4,2,8.5c0,3.8,3.4,6.9,8.5,11.5l1.5,1.3
	l1.5-1.3c5.1-4.7,8.5-7.8,8.5-11.5C22,5.4,19.6,3,16.5,3z M16.5,5c1.5,0,2.6,0.8,3.2,2h-6.6C13.7,5.8,15.1,5,16.5,5z M7.5,5
	c1.4,0,2.8,0.8,3.4,2H4.3C4.9,5.8,6,5,7.5,5z"/>
<path id="_x31_00" class="st0" d="M12,21.4L10.6,20C5.4,15.4,2,12.3,2,8.5C2,5.4,4.4,3,7.5,3c1.7,0,3.4,0.8,4.5,2.1
	C13.1,3.8,14.8,3,16.5,3C19.6,3,22,5.4,22,8.5c0,3.8-3.4,6.9-8.6,11.5L12,21.4z"/>
</svg>
