<?xml version="1.0" encoding="utf-8"?>
<!-- Generator: Adobe Illustrator 19.2.1, SVG Export Plug-In . SVG Version: 6.00 Build 0)  -->
<svg version="1.1" id="Layer_1" xmlns="http://www.w3.org/2000/svg" xmlns:xlink="http://www.w3.org/1999/xlink" x="0px" y="0px"
	 viewBox="0 0 48 48" style="enable-background:new 0 0 48 48;" xml:space="preserve">
<style type="text/css">
	.st0{fill:#F5F5F5;}
	.st1{fill:#29B6F6;}
</style>
<circle class="st0" cx="24" cy="24" r="22"/>
<path class="st1" d="M21.4,14c4.1,0,7.4,3.3,7.4,7.4c0,1.8-0.7,3.5-1.8,4.8l0.3,0.3h0.9l5.7,5.7L32.3,34l-5.7-5.7v-0.9l-0.3-0.3
	c-1.3,1.1-3,1.8-4.8,1.8c-4.1,0-7.4-3.3-7.4-7.4S17.3,14,21.4,14 M21.4,16.3c-2.9,0-5.1,2.3-5.1,5.1s2.3,5.1,5.1,5.1
	s5.1-2.3,5.1-5.1S24.3,16.3,21.4,16.3z"/>
</svg>
